<svg id="Layer_1" data-name="Layer 1" xmlns="http://www.w3.org/2000/svg" viewBox="0 0 100 100"><defs><style>.cls-1{fill:#76c9f1;}.cls-2{fill:none;stroke:#fff;stroke-miterlimit:10;stroke-width:3px;}</style></defs><circle class="cls-1" cx="50" cy="50.03" r="49.77"/><path class="cls-2" d="M39.87,31.66H60.13A1.94,1.94,0,0,1,62,33.14l3.53,14.51a2.22,2.22,0,1,1-4.44-.27,2.22,2.22,0,0,0-4.44,0,2.22,2.22,0,0,1-4.44,0,2.22,2.22,0,0,0-4.44,0,2.22,2.22,0,0,1-4.44,0,2.22,2.22,0,0,0-4.44,0,2.22,2.22,0,0,1-4.44.27L38,33.14A1.94,1.94,0,0,1,39.87,31.66Z"/><path class="cls-2" d="M36.21,49.71v15.6c0,1.67,1,3,2.33,3H61.46c1.28,0,2.33-1.36,2.33-3V49.6"/><path class="cls-2" d="M46.9,67.61V58.55a.79.79,0,0,1,.67-.87h4.86a.79.79,0,0,1,.67.87v9.22"/></svg>