<svg id="Layer_1" data-name="Layer 1" xmlns="http://www.w3.org/2000/svg" viewBox="0 0 100 100"><defs><style>.cls-1{fill:#76c9f1;}.cls-2{fill:none;stroke:#fff;stroke-miterlimit:10;stroke-width:3px;}</style></defs><circle class="cls-1" cx="50" cy="50.03" r="49.77"/><path class="cls-2" d="M66.45,55.48a1.83,1.83,0,0,0,1.83-1.82V46.34a1.83,1.83,0,0,0-1.83-1.82c-3.93,0-3.65.45-.93-2.27a1.83,1.83,0,0,0,0-2.6l-5.17-5.17a1.83,1.83,0,0,0-2.6,0c-2.74,2.72-2.27,3-2.27-.93a1.83,1.83,0,0,0-1.82-1.83H46.34a1.82,1.82,0,0,0-1.82,1.83c0,3.29.09,2.85-.22,3-3.9-3.9-2.78-3.9-9.82,3.12h0a1.83,1.83,0,0,0,0,2.6c2.72,2.72,3,2.27-.93,2.27a1.82,1.82,0,0,0-1.83,1.82v7.32h0a1.83,1.83,0,0,0,1.83,1.82c3.31,0,2.85-.09,3,.22-3.88,3.9-3.9,2.78,3.12,9.82h0a1.83,1.83,0,0,0,2.6,0c2.78-2.72,2.27-2.93,2.27.93a1.83,1.83,0,0,0,1.82,1.83h7.19A2.11,2.11,0,0,0,55,67.74a1.81,1.81,0,0,0,.53-1.29c0-3.93-.45-3.65,2.27-.93a1.83,1.83,0,0,0,2.6,0c7-7,7-5.91,3.12-9.82.13-.22-.35-.22,3-.22Z"/><circle class="cls-2" cx="50" cy="50" r="6.38"/></svg>