<svg id="Layer_1" data-name="Layer 1" xmlns="http://www.w3.org/2000/svg" viewBox="0 0 100 100"><defs><style>.cls-1{fill:#76c9f1;}.cls-2{fill:none;stroke:#fff;stroke-miterlimit:10;stroke-width:3px;}</style></defs><circle class="cls-1" cx="50" cy="50.03" r="49.77"/><path class="cls-2" d="M39.34,68.66a2.3,2.3,0,0,1-1.65-.84A2.34,2.34,0,0,1,37.17,66l1.35-10.51-7.25-7.71a2.36,2.36,0,0,1-.61-1.49,2.32,2.32,0,0,1,.5-1.54A2.35,2.35,0,0,1,32.53,44l10.36-2L48,32.7h0a2.32,2.32,0,0,1,4.08,0l5,9.29,10.39,2h0a2.35,2.35,0,0,1,1.37.84,2.32,2.32,0,0,1,.5,1.54,2.36,2.36,0,0,1-.61,1.49l-7.25,7.73L62.85,66a2.34,2.34,0,0,1-1.69,2.55,2.38,2.38,0,0,1-1.62-.15L50,63.91l-9.55,4.53a2.41,2.41,0,0,1-1.12.22Z"/></svg>